<svg id="Layer_1" data-name="Layer 1" xmlns="http://www.w3.org/2000/svg" width="142.24" height="139.91" viewBox="0 0 142.24 139.91"><defs><style>.cls-1{fill:#fff;}</style></defs><path class="cls-1" d="M129.8,75.42c0,1.65-.07,3.31-.2,5-.06.79-.14,1.58-.23,2.36,0,.33-.14,1.08,0,.32-.07.47-.14,1-.22,1.42a61.56,61.56,0,0,1-2.22,9.17c-.49,1.5-1.05,3-1.63,4.45-.07.16-.32.74,0,0l-.21.48c-.15.32-.29.64-.43,1-.34.74-.7,1.47-1.07,2.19a62.74,62.74,0,0,1-4.85,8c-.44.61-.89,1.2-1.34,1.8.44-.58,0,0-.19.24l-.88,1.07c-1,1.14-2,2.25-3,3.33s-2.2,2.19-3.36,3.23c-.56.49-1.13,1-1.71,1.46l-.94.77c-.22.18-1,.78-.37.29a64.42,64.42,0,0,1-7.86,5.1c-1.38.76-2.79,1.46-4.22,2.12l-1,.42-.48.21c.14-.06.78-.31,0,0s-1.53.61-2.3.89a64.78,64.78,0,0,1-9.09,2.53c-.77.15-1.54.29-2.31.41l-1.25.19c-.5.08.17,0,.22,0l-.72.09c-1.65.19-3.3.32-4.95.38a65.07,65.07,0,0,1-10-.4l-.55-.07c.06,0,.73.11.23,0l-1.26-.19c-.77-.12-1.54-.26-2.31-.41-1.58-.32-3.14-.69-4.69-1.13s-3.06-.92-4.56-1.47c-.72-.26-1.43-.54-2.14-.82s.47.21-.28-.12L46.22,129A62.73,62.73,0,0,1,38,124.49c-1.26-.82-2.48-1.7-3.69-2.6.74.56-.2-.16-.37-.29l-.8-.66c-.63-.51-1.24-1-1.84-1.57a64.18,64.18,0,0,1-6.49-6.7l-.76-.93c-.2-.25-.64-.82-.19-.24-.49-.64-1-1.29-1.44-1.94-.9-1.28-1.76-2.58-2.56-3.92s-1.57-2.71-2.28-4.1c-.31-.62-.62-1.25-.91-1.88-.17-.37-.34-.75-.5-1.12L16,98.06c.15.34.18.45,0,0A65.15,65.15,0,0,1,13,89c-.37-1.56-.69-3.14-.95-4.73-.05-.36-.1-.72-.16-1.07-.1-.65.08.69,0,0,0-.18,0-.36-.07-.54-.09-.84-.18-1.69-.24-2.54a63.47,63.47,0,0,1,0-9.75c.07-.79.14-1.57.23-2.36l.09-.72c0,.06-.1.72,0,.23s.12-.83.19-1.25c.26-1.59.58-3.17,1-4.73a77.72,77.72,0,0,1,3-9c.17-.45-.06.15-.08.2l.21-.48c.16-.37.33-.74.5-1.11.34-.74.7-1.47,1.07-2.2q1-2,2.2-3.94t2.58-3.9c.43-.61.88-1.21,1.34-1.81-.49.65.11-.14.3-.37l.76-.93a64.15,64.15,0,0,1,6.51-6.68c.56-.49,1.13-1,1.71-1.46l.8-.65.41-.33c.87-.69-.42.3.1-.08,1.27-.91,2.52-1.83,3.84-2.68a62.92,62.92,0,0,1,8.1-4.42l1.13-.5c.75-.33-.48.19.28-.12s1.53-.6,2.31-.88c1.5-.54,3-1,4.56-1.45s3.12-.81,4.7-1.12c.77-.15,1.54-.29,2.31-.41l1.08-.16c.5-.08-.17,0-.23,0l.91-.11a65.37,65.37,0,0,1,9.79-.35q2.49.11,5,.39l.54.07c-.16,0-.86-.13,0,0l1.07.16q1.24.2,2.49.45a63.15,63.15,0,0,1,9.24,2.62c.72.26,1.42.56,2.14.83.45.17-.16-.07-.2-.09l.48.21,1.12.5c1.43.66,2.84,1.36,4.21,2.12s2.72,1.57,4,2.42c.63.41,1.25.84,1.86,1.27l1,.71.68.5.66.53.8.65c.62.52,1.24,1,1.84,1.58q1.73,1.56,3.35,3.24t3.11,3.47l.66.81c.19.24.63.81.19.23q.73,1,1.44,2a63.3,63.3,0,0,1,4.83,8c.34.68.67,1.36,1,2.05.14.31.29.63.43.95,0,.12.34.8.13.3s.09.22.12.31c.59,1.47,1.14,3,1.63,4.46a62.43,62.43,0,0,1,2.19,9.17c.07.41.13.83.19,1.25-.11-.76,0,0,0,.31.09.79.17,1.57.23,2.36.13,1.65.19,3.31.2,5a4.24,4.24,0,0,0,8.47,0,66.92,66.92,0,0,0-12.33-38.67,67.88,67.88,0,0,0-73.71-26A67.44,67.44,0,0,0,3.16,70.45a66.87,66.87,0,0,0,9.55,39.74,67.57,67.57,0,0,0,29.72,26.33,69.14,69.14,0,0,0,41.87,4.74A67.64,67.64,0,0,0,119.42,122a66.75,66.75,0,0,0,18-35.78,72,72,0,0,0,.89-10.77,4.24,4.24,0,0,0-8.47,0Z" transform="translate(-2.96 -2.68)"/><path class="cls-1" d="M129.8,75.42c0,1.65-.07,3.31-.2,5-.06.79-.14,1.58-.23,2.36,0,.33-.14,1.08,0,.32-.07.47-.14,1-.22,1.42a61.56,61.56,0,0,1-2.22,9.17c-.49,1.5-1.05,3-1.63,4.45-.07.16-.32.74,0,0l-.21.48c-.15.32-.29.64-.43,1-.34.74-.7,1.47-1.07,2.19a62.74,62.74,0,0,1-4.85,8c-.44.61-.89,1.2-1.34,1.8.44-.58,0,0-.19.24l-.88,1.07c-1,1.14-2,2.25-3,3.33s-2.2,2.19-3.36,3.23c-.56.49-1.13,1-1.71,1.46l-.94.77c-.22.18-1,.78-.37.29a64.42,64.42,0,0,1-7.86,5.1c-1.38.76-2.79,1.46-4.22,2.12l-1,.42-.48.21c.14-.06.78-.31,0,0s-1.53.61-2.3.89a64.78,64.78,0,0,1-9.09,2.53c-.77.15-1.54.29-2.31.41l-1.25.19c-.5.08.17,0,.22,0l-.72.09c-1.65.19-3.3.32-4.95.38a65.07,65.07,0,0,1-10-.4l-.55-.07c.06,0,.73.11.23,0l-1.26-.19c-.77-.12-1.54-.26-2.31-.41-1.58-.32-3.14-.69-4.69-1.13s-3.06-.92-4.56-1.47c-.72-.26-1.43-.54-2.14-.82s.47.21-.28-.12L46.22,129A62.73,62.73,0,0,1,38,124.49c-1.26-.82-2.48-1.7-3.69-2.6.74.56-.2-.16-.37-.29l-.8-.66c-.63-.51-1.24-1-1.84-1.57a64.18,64.18,0,0,1-6.49-6.7l-.76-.93c-.2-.25-.64-.82-.19-.24-.49-.64-1-1.29-1.44-1.94-.9-1.28-1.76-2.58-2.56-3.92s-1.57-2.71-2.28-4.1c-.31-.62-.62-1.25-.91-1.88-.17-.37-.34-.75-.5-1.12L16,98.06c.15.34.18.45,0,0A65.15,65.15,0,0,1,13,89c-.37-1.56-.69-3.14-.95-4.73-.05-.36-.1-.72-.16-1.07-.1-.65.08.69,0,0,0-.18,0-.36-.07-.54-.09-.84-.18-1.69-.24-2.54a63.47,63.47,0,0,1,0-9.75c.07-.79.14-1.57.23-2.36l.09-.72c0,.06-.1.72,0,.23s.12-.83.19-1.25c.26-1.59.58-3.17,1-4.73a77.72,77.72,0,0,1,3-9c.17-.45-.06.15-.08.2l.21-.48c.16-.37.33-.74.5-1.11.34-.74.7-1.47,1.07-2.2q1-2,2.2-3.94t2.58-3.9c.43-.61.88-1.21,1.34-1.81-.49.65.11-.14.3-.37l.76-.93a64.15,64.15,0,0,1,6.51-6.68c.56-.49,1.13-1,1.71-1.46l.8-.65.41-.33c.87-.69-.42.3.1-.08,1.27-.91,2.52-1.83,3.84-2.68a62.92,62.92,0,0,1,8.1-4.42l1.13-.5c.75-.33-.48.19.28-.12s1.53-.6,2.31-.88c1.5-.54,3-1,4.56-1.45s3.12-.81,4.7-1.12c.77-.15,1.54-.29,2.31-.41l1.08-.16c.5-.08-.17,0-.23,0l.91-.11a65.37,65.37,0,0,1,9.79-.35q2.49.11,5,.39l.54.07c-.16,0-.86-.13,0,0l1.07.16q1.24.2,2.49.45a63.15,63.15,0,0,1,9.24,2.62c.72.26,1.42.56,2.14.83.45.17-.16-.07-.2-.09l.48.21,1.12.5c1.43.66,2.84,1.36,4.21,2.12s2.72,1.57,4,2.42c.63.41,1.25.84,1.86,1.27l1,.71.68.5.66.53.8.65c.62.52,1.24,1,1.84,1.58q1.73,1.56,3.35,3.24t3.11,3.47l.66.81c.19.24.63.81.19.23q.73,1,1.44,2a63.3,63.3,0,0,1,4.83,8c.34.68.67,1.36,1,2.05.14.31.29.63.43.95,0,.12.34.8.13.3s.09.22.12.31c.59,1.47,1.14,3,1.63,4.46a62.43,62.43,0,0,1,2.19,9.17c.07.41.13.83.19,1.25-.11-.76,0,0,0,.31.09.79.17,1.57.23,2.36.13,1.65.19,3.31.2,5a4.24,4.24,0,0,0,8.47,0,66.92,66.92,0,0,0-12.33-38.67,67.88,67.88,0,0,0-73.71-26A67.44,67.44,0,0,0,3.16,70.45a66.87,66.87,0,0,0,9.55,39.74,67.57,67.57,0,0,0,29.72,26.33,69.14,69.14,0,0,0,41.87,4.74A67.64,67.64,0,0,0,119.42,122a66.75,66.75,0,0,0,18-35.78,72,72,0,0,0,.89-10.77,4.24,4.24,0,0,0-8.47,0Z" transform="translate(-2.96 -2.68)"/><path class="cls-1" d="M110.15,75.42c0,1.1,0,2.21-.13,3.31,0,.54-.09,1.09-.15,1.63,0,.23-.15,1,0,.14,0,.29-.09.59-.14.89a44.1,44.1,0,0,1-1.56,6.39c-.33,1-.71,2-1.1,3,.33-.82-.14.32-.27.6-.24.53-.49,1-.76,1.57a43.66,43.66,0,0,1-3.32,5.48c-.3.42-.61.84-.93,1.25.57-.75-.37.44-.52.63-.71.84-1.44,1.65-2.21,2.43s-1.47,1.46-2.24,2.15l-1,.9-.53.44-.24.19a43.5,43.5,0,0,1-5.38,3.5c-.92.5-1.86,1-2.81,1.41-.18.08-1.69.71-.76.34-.55.22-1.09.43-1.65.63A43.73,43.73,0,0,1,78.22,114c-.59.12-1.18.23-1.77.32l-.72.11c.87-.13.23,0,0,0-1.22.13-2.44.23-3.66.27a46.18,46.18,0,0,1-6.65-.27c-.82-.09-.11,0,.05,0l-.9-.14c-.53-.09-1.07-.18-1.6-.29-1-.21-2.1-.46-3.13-.75s-2-.61-3-1c-.49-.18-1-.4-1.48-.56-.66-.22.9.41-.12,0l-1-.43a43.8,43.8,0,0,1-5.49-3q-1.3-.86-2.55-1.8c.7.53-.26-.22-.5-.41-.44-.36-.88-.74-1.31-1.12a44.08,44.08,0,0,1-4.56-4.71c-.17-.2-1-1.23-.42-.5-.31-.41-.62-.83-.92-1.25-.64-.9-1.24-1.81-1.81-2.75s-1-1.8-1.52-2.73c-.21-.42-.41-.83-.61-1.26l-.36-.79L34,90.38c.17.42.2.48.09.2a65,65,0,0,1-2-6.21c-.24-1-.44-2-.6-3-.05-.3-.1-.6-.14-.89,0,.16.1.86,0,0-.07-.6-.13-1.21-.18-1.81a44.23,44.23,0,0,1,0-6.81c0-.54.1-1.08.16-1.63,0-.18.12-.82,0,0,0-.24.07-.48.11-.72.19-1.17.42-2.34.71-3.5a51.15,51.15,0,0,1,2-6c-.34.89.24-.53.35-.75.22-.48.45-1,.68-1.41.5-1,1-1.94,1.61-2.88s1-1.66,1.62-2.46c.33-.47.67-.94,1-1.4-.09.13-.52.65,0,0l.66-.8A43.33,43.33,0,0,1,44.43,46c.38-.35.78-.69,1.18-1,.19-.15,1.39-1.09.63-.52q1.32-1,2.7-1.89a43.05,43.05,0,0,1,5.66-3.09c.28-.13,1.42-.59.6-.27.49-.19,1-.39,1.48-.57,1-.38,2.12-.73,3.2-1S62,37.06,63,36.85l1.42-.26.9-.14-.23,0,.54-.07a44.66,44.66,0,0,1,6.84-.23c1,0,2.08.12,3.11.23.23,0,1.06.15.14,0l.72.11c.59.1,1.18.2,1.77.32a44.47,44.47,0,0,1,6.34,1.78c.5.18,1,.38,1.48.57-.87-.33.36.16.6.27,1.06.48,2.1,1,3.12,1.57A43.83,43.83,0,0,1,95,44.45c-.79-.6.49.4.64.52.4.33.79.67,1.18,1,.82.72,1.6,1.48,2.37,2.27s1.33,1.43,2,2.17c.19.22.37.45.55.67s.63.79.09.09c.35.46.69.93,1,1.4A42.52,42.52,0,0,1,106,57.93q.36.69.69,1.41c.1.22.68,1.64.34.75.4,1,.81,2.07,1.15,3.14a42.77,42.77,0,0,1,1.54,6.39c0,.24.07.48.11.72-.14-.87,0-.23,0,0,.06.61.13,1.21.17,1.81.09,1.11.12,2.21.13,3.32a4.24,4.24,0,0,0,8.47,0,47.45,47.45,0,0,0-8.7-27.37A49.1,49.1,0,0,0,87,30.57c-18.61-6.86-40.63-.94-53.21,14.31a48.29,48.29,0,0,0-11,27,47.6,47.6,0,0,0,27.89,46.86,49.32,49.32,0,0,0,29.84,3.32c19-3.83,34.59-19.88,37.5-39a53.38,53.38,0,0,0,.64-7.67,4.24,4.24,0,0,0-8.47,0Z" transform="translate(-2.96 -2.68)"/><path class="cls-1" d="M92.73,75.42c0,.67,0,1.34-.08,2,0,.3-.06.6-.09.9-.11,1.19.18-.86,0,.31a30.85,30.85,0,0,1-.94,3.79c-.18.55-.39,1.1-.61,1.64.37-.93-.06.14-.13.28l-.3.62a25.66,25.66,0,0,1-2.16,3.55c-.13.19-.27.37-.41.55.61-.79-.1.12-.2.23-.37.43-.76.86-1.16,1.27s-.81.82-1.23,1.2l-.78.68c-.1.08-1,.79-.23.2a26.89,26.89,0,0,1-3.2,2.07q-.77.42-1.56.78s-1,.46-.45.21-.69.26-.81.3a26.66,26.66,0,0,1-3.42,1l-1.06.2c-1.13.22.58,0-.13,0s-1.46.14-2.19.17a31.46,31.46,0,0,1-3.88-.15c-1.16-.1.57.13-.13,0-.29-.06-.59-.09-.89-.15-.7-.14-1.39-.3-2.08-.5s-1.13-.33-1.69-.53l-1-.37c1,.36-.13-.07-.27-.14a25.3,25.3,0,0,1-3.34-1.85c-.48-.32-1-.65-1.42-1,.8.6-.11-.1-.22-.2L56.12,92a31,31,0,0,1-2.77-2.84c-.14-.16-.62-.79-.09-.09-.21-.27-.41-.55-.61-.83-.33-.47-.65-1-.94-1.45s-.59-1-.85-1.51c-.17-.31-.32-.62-.47-.93s-.48-1.17-.13-.28a28.19,28.19,0,0,1-1.14-3.51c-.16-.64-.27-1.28-.4-1.92,0-.18-.11-.83,0,0-.06-.48-.1-1-.14-1.45a28.09,28.09,0,0,1,0-3.67c0-.36.07-.73.1-1.09.08-.82,0-.11,0,.05.12-.71.25-1.41.42-2.11a31.52,31.52,0,0,1,1.18-3.68c-.29.79-.09.21,0,0s.29-.63.45-.94c.31-.62.65-1.23,1-1.82s.61-1,.94-1.45c.2-.28.4-.56.61-.83-.5.67-.13.17,0,0a33.65,33.65,0,0,1,2.88-3l.52-.45c.11-.09,1-.8.22-.2.46-.35.94-.68,1.42-1a26.57,26.57,0,0,1,3.34-1.86c.14-.07,1.22-.5.27-.13l.83-.32c.61-.22,1.22-.42,1.85-.59s1.15-.3,1.73-.42c.3-.07.59-.12.89-.17,1.11-.19-.39,0,.48-.08a30.36,30.36,0,0,1,3.69-.15c.68,0,1.35.06,2,.13.24,0,1.05.16.13,0l1.25.22A31.33,31.33,0,0,1,79,55.06c.17.06.75.32,0,0,.42.19.85.38,1.26.59.63.31,1.24.65,1.84,1s1.17.74,1.73,1.14c0,0,.91.69.41.29s.55.47.64.54a26.93,26.93,0,0,1,2.91,2.94c.1.11.81,1,.2.22.21.27.42.55.61.83.4.57.78,1.15,1.13,1.75s.68,1.21,1,1.83c.16.32.3.63.44,1-.4-.9.05.17.1.29a26.34,26.34,0,0,1,1.16,4.08c.07.35.12.7.18,1.06-.17-1,0,.28.05.49.07.8.1,1.59.11,2.39a4.24,4.24,0,0,0,8.47,0A30.54,30.54,0,1,0,44.39,91.05a31,31,0,0,0,32.44,14.12c14.1-2.74,24.27-15.64,24.37-29.75a4.24,4.24,0,0,0-8.47,0Z" transform="translate(-2.96 -2.68)"/><path class="cls-1" d="M120,21.77l-17.7,17.59-28.2,28-6.43,6.4a4.24,4.24,0,0,0,0,6,4.34,4.34,0,0,0,6,0L91.32,62.13l28.19-28,6.43-6.39a4.23,4.23,0,0,0,0-5.95,4.32,4.32,0,0,0-6,0Z" transform="translate(-2.96 -2.68)"/><path class="cls-1" d="M124.22,5.74q-2.37,8.63-4.73,17.25a4.26,4.26,0,0,0,3,5.18,4.32,4.32,0,0,0,5.22-2.94L132.39,8a4.25,4.25,0,0,0-3-5.18,4.31,4.31,0,0,0-5.21,2.94Z" transform="translate(-2.96 -2.68)"/><path class="cls-1" d="M139.82,15.36l-17.37,4.69a4.27,4.27,0,0,0-3,5.18,4.32,4.32,0,0,0,5.22,2.94l17.36-4.69a4.26,4.26,0,0,0,3-5.18,4.31,4.31,0,0,0-5.21-2.94Z" transform="translate(-2.96 -2.68)"/></svg>