<svg id="Layer_1" data-name="Layer 1" xmlns="http://www.w3.org/2000/svg" width="82.67" height="127.76" viewBox="0 0 82.67 127.76"><defs><style>.cls-1{fill:#fff;}</style></defs><path class="cls-1" d="M91.67,16.58a46,46,0,0,0-12.9-2,51.14,51.14,0,0,0-13.62,2c-26.67,9-37.14,43.26-19,66.5,3.58,4.6,7.26,9.16,10.44,14,2,3,3.18,6.52,4.52,9.89.9,2.28,2.26,3.61,4.79,3.61H90.94c2.53,0,3.89-1.33,4.8-3.61,1.33-3.37,2.55-6.88,4.51-9.89,3.18-4.87,6.86-9.43,10.44-14C128.81,59.84,118.34,25.59,91.67,16.58Zm11.93,61.6c-4.48,5.54-9.25,11.1-12.41,17.39a17.19,17.19,0,0,1-3,4.51c-8.69,4.35-19.48,0-19.48,0h0a17.44,17.44,0,0,1-3-4.51c-3.16-6.29-7.93-11.85-12.41-17.39C39,60.57,46.11,32.71,66.93,25a40.92,40.92,0,0,1,11.84-1.88A36.3,36.3,0,0,1,89.89,25C110.71,32.71,117.82,60.57,103.6,78.18Z" transform="translate(-37.07 -14.56)"/><path class="cls-1" d="M89.05,113.89q-11.61-.11-23.24,0c-3,0-4.78,1.81-4.7,4.46.08,2.49,1.84,4.07,4.76,4.11,3.87.05,7.75,0,11.62,0v0c3.78,0,7.56,0,11.34,0,3.06,0,4.79-1.66,4.78-4.34S92,113.92,89.05,113.89Z" transform="translate(-37.07 -14.56)"/><path class="cls-1" d="M89.26,125.82q-11.88-.15-23.78,0a4.11,4.11,0,0,0-4.37,4.22c0,2.53,1.73,4.23,4.56,4.28,3.87.07,7.74,0,11.6,0h0c4,0,7.93,0,11.89,0,2.83-.06,4.34-1.53,4.43-4.05A4,4,0,0,0,89.26,125.82Z" transform="translate(-37.07 -14.56)"/><path class="cls-1" d="M87.23,137.66H67.53A2.35,2.35,0,0,0,65.18,140h0s0,.08,0,.13h0a2.36,2.36,0,0,0,2.34,2.19h19.7a2.35,2.35,0,0,0,2.34-2.25h0V140h0A2.34,2.34,0,0,0,87.23,137.66Z" transform="translate(-37.07 -14.56)"/></svg>