<?xml version="1.0" encoding="utf-8"?>
<!-- Generator: Adobe Illustrator 24.1.1, SVG Export Plug-In . SVG Version: 6.00 Build 0)  -->
<svg version="1.1" id="Layer_1" xmlns="http://www.w3.org/2000/svg" xmlns:xlink="http://www.w3.org/1999/xlink" x="0px" y="0px"
	 viewBox="0 0 82.7 127.8" style="enable-background:new 0 0 82.7 127.8;" xml:space="preserve">
<style type="text/css">
	.st0{fill:#695D75;}
</style>
<path class="st0" d="M54.6,2c-4.2-1.3-8.5-1.9-12.9-2c-4.6,0-9.2,0.7-13.6,2C1.4,11-9.1,45.3,9.1,68.5c3.6,4.6,7.3,9.2,10.4,14
	c2,3,3.2,6.5,4.5,9.9c0.9,2.3,2.3,3.6,4.8,3.6h25c2.5,0,3.9-1.3,4.8-3.6c1.3-3.4,2.6-6.9,4.5-9.9c3.2-4.9,6.9-9.4,10.4-14
	C91.7,45.3,81.3,11,54.6,2z M66.5,63.6C62,69.2,57.3,74.7,54.1,81c-0.8,1.7-1.8,3.2-3,4.5c-8.7,4.3-19.5,0-19.5,0l0,0
	c-1.2-1.3-2.2-2.9-3-4.5c-3.2-6.3-7.9-11.8-12.4-17.4C1.9,46,9,18.1,29.9,10.4c3.8-1.2,7.8-1.8,11.8-1.9c3.8,0,7.5,0.7,11.1,1.9
	C73.6,18.1,80.8,46,66.5,63.6z"/>
<path class="st0" d="M52,99.3c-7.7-0.1-15.5-0.1-23.2,0c-3,0-4.8,1.8-4.7,4.5c0.1,2.5,1.8,4.1,4.8,4.1c3.9,0.1,7.8,0,11.6,0l0,0
	c3.8,0,7.6,0,11.3,0c3.1,0,4.8-1.7,4.8-4.3S54.9,99.4,52,99.3z"/>
<path class="st0" d="M52.2,111.3c-7.9-0.1-15.8-0.1-23.8,0c-2.3-0.1-4.2,1.6-4.4,3.8c0,0.1,0,0.3,0,0.4c0,2.5,1.7,4.2,4.6,4.3
	c3.9,0.1,7.7,0,11.6,0l0,0c4,0,7.9,0,11.9,0c2.8-0.1,4.3-1.5,4.4-4.1c0.3-2.2-1.3-4.2-3.5-4.4C52.7,111.2,52.5,111.2,52.2,111.3z"/>
<path class="st0" d="M50.2,123.1H30.5c-1.3,0-2.3,1-2.3,2.3l0,0v0.1l0,0c0.1,1.2,1.1,2.2,2.3,2.2h19.7c1.3,0,2.3-1,2.3-2.3l0,0v-0.1
	l0,0C52.5,124.2,51.4,123.1,50.2,123.1z"/>
</svg>
