<svg id="Layer_1" data-name="Layer 1" xmlns="http://www.w3.org/2000/svg" width="147.54" height="112" viewBox="0 0 147.54 112"><defs><style>.cls-1{fill:#fff;}</style></defs><path class="cls-1" d="M43.3,32.25H144.13a5.2,5.2,0,0,0,0-10.37H43.3a5.2,5.2,0,0,0,0,10.37Z" transform="translate(-1.46 -17)"/><path class="cls-1" d="M11.31,27.38q.87,0-.09,0c.52.18.5.15-.07-.09.39.27.44.28.15,0s-.25-.22.1.11.34.4-.05-.09q.39.78,0-.12l.11.41c-.05-.69-.06-.72,0-.11s0,.59,0-.1c-.17.57-.14.54.08-.07l-.19.36c.39-.49.41-.52.05-.09s-.38.37.08-.05c-.41.23-.45.26-.11.1s.3-.14-.15,0q1-.07.09,0c-.58,0-.54,0,.1,0L11,27.55c.56.27.59.27.11,0,.46.42.49.43.09.05s-.35-.4-.11-.11.21.26,0-.16c.22.61.25.64.08.07.05.69.06.72,0,.1s0-.58,0-.16,0,.36.09-.14q-.37.9,0,.12c-.39.49-.41.52,0,.09l.28-.27q-.72.59,0,.12c-.58.24-.6.27-.07.09-.64,0-.68.06-.1,0a5.12,5.12,0,0,0,4.87-5.19c-.12-2.72-2.15-5.3-4.87-5.19A10.36,10.36,0,0,0,1.46,27.5C1.44,33.18,6,38,11.31,38s9.85-4.78,9.85-10.51A10.35,10.35,0,0,0,11.31,17c-2.54-.11-5,2.47-4.86,5.19A5.14,5.14,0,0,0,11.31,27.38Z" transform="translate(-1.46 -17)"/><path class="cls-1" d="M43.3,77.75H144.13a5.2,5.2,0,0,0,0-10.37H43.3a5.2,5.2,0,0,0,0,10.37Z" transform="translate(-1.46 -17)"/><path class="cls-1" d="M11.31,72.87q.87.06-.09,0c.52.18.5.15-.07-.08.39.26.44.28.15,0s-.25-.22.1.11.34.4-.05-.09q.39.77,0-.12c0,.13.07.27.11.4-.05-.68-.06-.71,0-.1s0,.58,0-.1c-.17.56-.14.54.08-.07l-.19.35c.39-.49.41-.52.05-.09s-.38.37.08,0c-.41.23-.45.27-.11.11s.3-.14-.15,0q1-.07.09,0c-.58,0-.54,0,.1,0L11,73c.56.28.59.28.11,0,.46.42.49.44.09,0s-.35-.4-.11-.1.21.25,0-.16c.22.61.25.63.08.07.05.68.06.72,0,.1s0-.58,0-.17,0,.36.09-.13q-.37.89,0,.12c-.39.49-.41.52,0,.09l.28-.28c-.48.39-.49.44,0,.13-.58.23-.6.26-.07.08-.64.06-.68.07-.1,0a5.11,5.11,0,0,0,4.87-5.18C16.06,65,14,62.38,11.31,62.5A10.35,10.35,0,0,0,1.46,73c0,5.68,4.53,10.52,9.85,10.5s9.85-4.78,9.85-10.5a10.35,10.35,0,0,0-9.85-10.5,5.07,5.07,0,0,0-4.86,5.19A5.12,5.12,0,0,0,11.31,72.87Z" transform="translate(-1.46 -17)"/><path class="cls-1" d="M43.3,123.25H144.13a5.2,5.2,0,0,0,0-10.37H43.3a5.2,5.2,0,0,0,0,10.37Z" transform="translate(-1.46 -17)"/><path class="cls-1" d="M11.31,118.37q.87,0-.09,0c.52.18.5.15-.07-.08q.58.39.15,0c-.28-.25-.25-.21.1.12s.34.4-.05-.09q.39.77,0-.12c0,.13.07.27.11.4-.05-.68-.06-.72,0-.1s0,.58,0-.1c-.17.56-.14.54.08-.08l-.19.36c.39-.49.41-.52.05-.09s-.38.37.08,0c-.41.23-.45.26-.11.1s.3-.14-.15,0q1-.07.09,0c-.58,0-.54,0,.1,0l-.38-.12c.56.27.59.27.11,0,.46.42.49.44.09,0s-.35-.4-.11-.1.21.25,0-.17c.22.62.25.64.08.08.05.68.06.71,0,.1s0-.58,0-.17,0,.36.09-.13q-.37.89,0,.12c-.39.49-.41.52,0,.09l.28-.28c-.48.39-.49.43,0,.13-.58.23-.6.26-.07.08-.64,0-.68.06-.1,0a5.12,5.12,0,0,0,4.87-5.19c-.12-2.71-2.15-5.3-4.87-5.18a10.35,10.35,0,0,0-9.85,10.5C1.44,124.18,6,129,11.31,129s9.85-4.78,9.85-10.5A10.35,10.35,0,0,0,11.31,108a5.06,5.06,0,0,0-4.86,5.18A5.13,5.13,0,0,0,11.31,118.37Z" transform="translate(-1.46 -17)"/></svg>