<svg id="Layer_1" data-name="Layer 1" xmlns="http://www.w3.org/2000/svg" width="142.89" height="143" viewBox="0 0 142.89 143"><defs><style>.cls-1{fill:#fff;}</style></defs><path class="cls-1" d="M46.3,124.58l-17-16.93-2.45-2.44v6.16L36.24,102,58.7,79.68,85.93,52.61l23.55-23.39c3.8-3.78,7.84-7.41,11.44-11.37,0-.06.11-.11.16-.16h-6.2l17.05,16.93,2.45,2.44V30.9l-9.44,9.38L102.49,62.59,75.25,89.65,51.7,113.05c-3.8,3.79-7.74,7.48-11.44,11.37a1.21,1.21,0,0,1-.16.16,4.39,4.39,0,0,0,0,6.16,4.48,4.48,0,0,0,6.2,0l9.44-9.37L78.19,99.05,105.43,72,129,48.59c3.8-3.79,7.74-7.48,11.44-11.37l.16-.16a4.4,4.4,0,0,0,0-6.16L123.54,14l-2.46-2.43a4.46,4.46,0,0,0-6.2,0l-9.43,9.37L83,43.21,55.76,70.28,32.21,93.68c-3.81,3.78-7.74,7.48-11.44,11.37l-.16.16a4.39,4.39,0,0,0,0,6.16l17,16.93,2.45,2.44a4.37,4.37,0,0,0,6.2-6.16Z" transform="translate(-4.25 -5)"/><path class="cls-1" d="M19.48,107.13,7.24,136.24c-.58,1.39-1.16,2.78-1.75,4.16-1.22,2.91,2.47,6.58,5.4,5.36L40.18,133.6l4.19-1.74c2.11-.87,3.85-2.92,3.06-5.36-.65-2-3.13-4-5.39-3l-29.3,12.16-4.18,1.74L14,142.72l12.24-29.11,1.74-4.16c.89-2.11-.95-4.89-3.06-5.36-2.56-.58-4.44.78-5.39,3Z" transform="translate(-4.25 -5)"/><path class="cls-1" d="M122.42,16.36c.11-.1,1.07-1,.74-.7s.68-.47.82-.56c.32-.2.65-.39,1-.56s1.23-.48.34-.17a16,16,0,0,1,2.15-.63c.25-.05.49-.09.74-.12-.49.06-.57.08-.25.05s.75-.05,1.12-.05.86,0,1.3.06c-.78,0-.09,0,.3.06a14.82,14.82,0,0,1,2.16.63c-.92-.33.31.16.5.26s.67.37,1,.58c.16.1,1.18.93.52.35.3.26.59.52.88.8s.54.57.8.87c-.58-.64.14.19.25.36s.41.64.6,1c.07.13.61,1.31.43.84s.24.76.28.89q.15.54.27,1.08c0,.24.07,1.27.06.3,0,.37.05.74.06,1.11s0,.74,0,1.11c0,.86.16-.63-.06.49a18.6,18.6,0,0,1-.66,2.32c.29-.88-.1.18-.17.33q-.27.51-.57,1a8.94,8.94,0,0,1-.66.95c.57-.72-.49.48-.6.6a4.39,4.39,0,0,0,0,6.16,4.47,4.47,0,0,0,6.2,0,18.2,18.2,0,0,0,0-25.53,18.47,18.47,0,0,0-25.7,0,4.38,4.38,0,0,0,0,6.16,4.49,4.49,0,0,0,6.2,0Z" transform="translate(-4.25 -5)"/><path class="cls-1" d="M45.3,126.58l-17-16.93-2.45-2.44v6.16L35.24,104,57.7,81.68,84.93,54.61l23.55-23.39c3.8-3.78,7.84-7.41,11.44-11.37,0-.06.11-.11.16-.16h-6.2l17.05,16.93,2.45,2.44V32.9l-9.44,9.38L101.49,64.59,74.25,91.65,50.7,115.05c-3.8,3.79-7.74,7.48-11.44,11.37a1.21,1.21,0,0,1-.16.16,4.39,4.39,0,0,0,0,6.16,4.48,4.48,0,0,0,6.2,0l9.44-9.37,22.45-22.32L104.43,74,128,50.59c3.8-3.79,7.74-7.48,11.44-11.37l.16-.16a4.4,4.4,0,0,0,0-6.16L122.54,16l-2.46-2.43a4.46,4.46,0,0,0-6.2,0l-9.43,9.37L82,45.21,54.76,72.28,31.21,95.68c-3.81,3.78-7.74,7.48-11.44,11.37l-.16.16a4.39,4.39,0,0,0,0,6.16l17,16.93,2.45,2.44a4.37,4.37,0,0,0,6.2-6.16Z" transform="translate(-4.25 -5)"/><path class="cls-1" d="M18.48,109.13,6.24,138.24c-.58,1.39-1.16,2.78-1.75,4.16C3.27,145.31,7,149,9.89,147.76L39.18,135.6l4.19-1.74c2.11-.87,3.85-2.92,3.06-5.36-.65-2-3.13-4-5.39-3l-29.3,12.16-4.18,1.74L13,144.72l12.24-29.11,1.74-4.16c.89-2.11-.95-4.89-3.06-5.36-2.56-.58-4.44.78-5.39,3Z" transform="translate(-4.25 -5)"/><path class="cls-1" d="M121.42,18.36c.11-.1,1.07-1,.74-.7s.68-.47.82-.56c.32-.2.65-.39,1-.56s1.23-.48.34-.17a16,16,0,0,1,2.15-.63c.25-.05.49-.09.74-.12-.49.06-.57.08-.25.05s.75-.05,1.12-.05.86,0,1.3.06c-.78,0-.09,0,.3.06a14.82,14.82,0,0,1,2.16.63c-.92-.33.31.16.5.26s.67.37,1,.58c.16.1,1.18.93.52.35.3.26.59.52.88.8s.54.57.8.87c-.58-.64.14.19.25.36s.41.64.6,1c.07.13.61,1.31.43.84s.24.76.28.89q.15.54.27,1.08c0,.24.07,1.27.06.3,0,.37.05.74.06,1.11s0,.74,0,1.11c0,.86.16-.63-.06.49a18.6,18.6,0,0,1-.66,2.32c.29-.88-.1.18-.17.33q-.27.51-.57,1a8.94,8.94,0,0,1-.66.95c.57-.72-.49.48-.6.6a4.39,4.39,0,0,0,0,6.16,4.47,4.47,0,0,0,6.2,0,18.2,18.2,0,0,0,0-25.53,18.47,18.47,0,0,0-25.7,0,4.38,4.38,0,0,0,0,6.16,4.49,4.49,0,0,0,6.2,0Z" transform="translate(-4.25 -5)"/></svg>