<svg id="Layer_1" data-name="Layer 1" xmlns="http://www.w3.org/2000/svg" width="142.94" height="142.97" viewBox="0 0 142.94 142.97"><defs><style>.cls-1{fill:#695d75;}</style></defs><path class="cls-1" d="M42.05,119.58l-17-16.93-2.45-2.44v6.16L32,97,54.45,74.68,81.68,47.61l23.55-23.39c3.8-3.78,7.84-7.41,11.44-11.37,0-.06.11-.11.16-.16h-6.2l17.05,16.93,2.45,2.44V25.9l-9.44,9.38L98.24,57.59,71,84.65l-23.55,23.4c-3.8,3.79-7.74,7.48-11.44,11.37a1.21,1.21,0,0,1-.16.16,4.39,4.39,0,0,0,0,6.16,4.48,4.48,0,0,0,6.2,0l9.44-9.37L73.94,94.05l27.24-27,23.57-23.41c3.8-3.79,7.74-7.48,11.44-11.37l.16-.16a4.39,4.39,0,0,0,0-6.16L119.29,9l-2.46-2.43a4.46,4.46,0,0,0-6.2,0l-9.43,9.37L78.75,38.21,51.51,65.28,28,88.68c-3.81,3.78-7.74,7.48-11.44,11.37l-.16.16a4.39,4.39,0,0,0,0,6.16l17,16.93,2.45,2.44a4.37,4.37,0,0,0,6.2-6.16Z" transform="translate(0 -0.04)"/><path class="cls-1" d="M15.23,102.13,3,131.24c-.58,1.39-1.16,2.78-1.75,4.16C0,138.31,3.71,142,6.64,140.76L35.93,128.6l4.19-1.74c2.11-.87,3.85-2.92,3.06-5.36-.65-2-3.13-4-5.39-3L8.49,130.66,4.31,132.4l5.44,5.32L22,108.61l1.74-4.16c.89-2.11-.95-4.89-3.06-5.36-2.56-.58-4.44.78-5.39,3Z" transform="translate(0 -0.04)"/><path class="cls-1" d="M118.17,11.36c.11-.1,1.07-1,.74-.7s.68-.47.82-.56a10.73,10.73,0,0,1,1-.56c.35-.17,1.23-.48.34-.17a16,16,0,0,1,2.15-.63c.25-.05.49-.09.74-.12-.49.06-.57.08-.25.05s.75-.05,1.12-.05a10,10,0,0,1,1.3.06c-.78,0-.09,0,.3.06a14.82,14.82,0,0,1,2.16.63c-.92-.33.31.16.5.26s.67.37,1,.58c.16.1,1.18.93.52.35.3.26.59.52.88.8s.54.57.8.87c-.58-.64.14.19.25.36s.41.64.6,1c.07.13.61,1.31.43.84s.24.76.28.89q.15.54.27,1.08c0,.24.07,1.27.06.3,0,.37,0,.74.06,1.11s0,.74,0,1.11c0,.86.16-.63-.06.49a18.6,18.6,0,0,1-.66,2.32c.29-.88-.1.18-.17.33-.18.34-.37.67-.57,1a8.94,8.94,0,0,1-.66,1c.57-.72-.49.48-.6.6a4.39,4.39,0,0,0,0,6.16,4.46,4.46,0,0,0,6.2,0,18.2,18.2,0,0,0,0-25.53,18.46,18.46,0,0,0-25.7,0,4.38,4.38,0,0,0,0,6.16,4.48,4.48,0,0,0,6.2,0Z" transform="translate(0 -0.04)"/><path class="cls-1" d="M41.05,121.58l-17-16.93-2.45-2.44v6.16L31,99,53.45,76.68,80.68,49.61l23.55-23.39c3.8-3.78,7.84-7.41,11.44-11.37,0-.06.11-.11.16-.16h-6.2l17.05,16.93,2.45,2.44V27.9l-9.44,9.38L97.24,59.59,70,86.65l-23.55,23.4c-3.8,3.79-7.74,7.48-11.44,11.37a1.21,1.21,0,0,1-.16.16,4.39,4.39,0,0,0,0,6.16,4.48,4.48,0,0,0,6.2,0l9.44-9.37L72.94,96.05l27.24-27,23.57-23.41c3.8-3.79,7.74-7.48,11.44-11.37l.16-.16a4.39,4.39,0,0,0,0-6.16L118.29,11l-2.46-2.43a4.46,4.46,0,0,0-6.2,0l-9.43,9.37L77.75,40.21,50.51,67.28,27,90.68c-3.81,3.78-7.74,7.48-11.44,11.37l-.16.16a4.39,4.39,0,0,0,0,6.16l17,16.93,2.45,2.44a4.37,4.37,0,0,0,6.2-6.16Z" transform="translate(0 -0.04)"/><path class="cls-1" d="M14.23,104.13,2,133.24C1.41,134.63.83,136,.24,137.4c-1.22,2.91,2.51,6.6,5.4,5.36L34.93,130.6l4.19-1.74c2.11-.87,3.85-2.92,3.06-5.36-.65-2-3.13-4-5.39-3L7.49,132.66,3.31,134.4l5.44,5.32L21,110.61l1.74-4.16c.89-2.11-.95-4.89-3.06-5.36-2.56-.58-4.44.78-5.39,3Z" transform="translate(0 -0.04)"/><path class="cls-1" d="M117.17,13.36c.11-.1,1.07-1,.74-.7s.68-.47.82-.56a10.73,10.73,0,0,1,1-.56c.35-.17,1.23-.48.34-.17a16,16,0,0,1,2.15-.63c.25-.05.49-.09.74-.12-.49.06-.57.08-.25.05s.75-.05,1.12-.05a10,10,0,0,1,1.3.06c-.78,0-.09,0,.3.06a14.82,14.82,0,0,1,2.16.63c-.92-.33.31.16.5.26s.67.37,1,.58c.16.1,1.18.93.52.35.3.26.59.52.88.8s.54.57.8.87c-.58-.64.14.19.25.36s.41.64.6,1c.07.13.61,1.31.43.84s.24.76.28.89q.15.54.27,1.08c0,.24.07,1.27.06.3,0,.37,0,.74.06,1.11s0,.74,0,1.11c0,.86.16-.63-.06.49a18.6,18.6,0,0,1-.66,2.32c.29-.88-.1.18-.17.33-.18.34-.37.67-.57,1a8.94,8.94,0,0,1-.66,1c.57-.72-.49.48-.6.6a4.39,4.39,0,0,0,0,6.16,4.46,4.46,0,0,0,6.2,0,18.2,18.2,0,0,0,0-25.53,18.46,18.46,0,0,0-25.7,0,4.38,4.38,0,0,0,0,6.16,4.48,4.48,0,0,0,6.2,0Z" transform="translate(0 -0.04)"/></svg>